<svg width="14" height="9" viewBox="0 0 14 9" fill="none" xmlns="http://www.w3.org/2000/svg">
<path d="M13.5303 1.53033C13.8232 1.23744 13.8232 0.762563 13.5303 0.46967C13.2374 0.176777 12.7626 0.176777 12.4697 0.46967L13.5303 1.53033ZM7 7L6.46967 7.53033L7 8.06066L7.53033 7.53033L7 7ZM1.53033 0.46967C1.23744 0.176777 0.762563 0.176777 0.46967 0.46967C0.176777 0.762563 0.176777 1.23744 0.46967 1.53033L1.53033 0.46967ZM12.4697 0.46967L6.46967 6.46967L7.53033 7.53033L13.5303 1.53033L12.4697 0.46967ZM7.53033 6.46967L1.53033 0.46967L0.46967 1.53033L6.46967 7.53033L7.53033 6.46967Z" fill="#778DA9"/>
</svg>
