<svg width="26" height="26" viewBox="0 0 26 26" fill="none" xmlns="http://www.w3.org/2000/svg">
<path d="M12.931 7.65785C9.72114 7.65785 7.06152 10.2716 7.06152 13.5273C7.06152 16.7831 9.67528 19.3968 12.931 19.3968C16.1867 19.3968 18.8005 16.7372 18.8005 13.5273C18.8005 10.3175 16.1409 7.65785 12.931 7.65785ZM12.931 17.2875C10.8675 17.2875 9.17087 15.5908 9.17087 13.5273C9.17087 11.4638 10.8675 9.7672 12.931 9.7672C14.9945 9.7672 16.6912 11.4638 16.6912 13.5273C16.6912 15.5908 14.9945 17.2875 12.931 17.2875Z" fill="#F8F6F2"/>
<path d="M19.03 8.8501C19.7644 8.8501 20.3598 8.25473 20.3598 7.5203C20.3598 6.78586 19.7644 6.19049 19.03 6.19049C18.2956 6.19049 17.7002 6.78586 17.7002 7.5203C17.7002 8.25473 18.2956 8.8501 19.03 8.8501Z" fill="#F8F6F2"/>
<path d="M22.4691 4.08114C21.2769 2.84304 19.5802 2.20107 17.6543 2.20107H8.20811C4.21869 2.20107 1.55908 4.86068 1.55908 8.85009V18.2504C1.55908 20.2222 2.20106 21.9189 3.48501 23.157C4.7231 24.3492 6.3739 24.9453 8.25397 24.9453H17.6085C19.5802 24.9453 21.231 24.3034 22.4233 23.157C23.6614 21.9647 24.3033 20.2681 24.3033 18.2963V8.85009C24.3033 6.92417 23.6614 5.27338 22.4691 4.08114ZM22.2857 18.2963C22.2857 19.7178 21.7813 20.8642 20.9559 21.6437C20.1305 22.4233 18.9841 22.836 17.6085 22.836H8.25397C6.87831 22.836 5.73192 22.4233 4.90652 21.6437C4.08113 20.8183 3.66843 19.672 3.66843 18.2504V8.85009C3.66843 7.47443 4.08113 6.32805 4.90652 5.50265C5.68607 4.72311 6.87831 4.31041 8.25397 4.31041H17.7002C19.0758 4.31041 20.2222 4.72311 21.0476 5.54851C21.8272 6.3739 22.2857 7.52029 22.2857 8.85009V18.2963Z" fill="#F8F6F2"/>
</svg>
