<svg width="34" height="34" viewBox="0 0 34 34" fill="none" xmlns="http://www.w3.org/2000/svg">
<path d="M11.3335 26.9167H7.0835V12.75H11.3335V26.9167ZM26.9168 26.9167H22.6668V19.3488C22.6668 17.3768 21.9642 16.3951 20.5716 16.3951C19.468 16.3951 18.7682 16.9448 18.4168 18.0455C18.4168 19.8333 18.4168 26.9167 18.4168 26.9167H14.1668C14.1668 26.9167 14.2235 14.1667 14.1668 12.75H17.5215L17.7807 15.5833H17.8686C18.7398 14.1667 20.1324 13.2062 22.0421 13.2062C23.4942 13.2062 24.6686 13.6099 25.5653 14.6243C26.4677 15.64 26.9168 17.0028 26.9168 18.9167V26.9167Z" fill="#F8F6F2"/>
<path d="M9.20853 11.3333C10.4213 11.3333 11.4044 10.3819 11.4044 9.20833C11.4044 8.03472 10.4213 7.08333 9.20853 7.08333C7.9958 7.08333 7.0127 8.03472 7.0127 9.20833C7.0127 10.3819 7.9958 11.3333 9.20853 11.3333Z" fill="#F8F6F2"/>
</svg>
