<svg width="56" height="66" viewBox="0 0 56 66" fill="none" xmlns="http://www.w3.org/2000/svg">
<path fill-rule="evenodd" clip-rule="evenodd" d="M51.4381 11.9137L41.2405 7.15951L15.1425 27.874L17.4577 38.8846L51.4381 11.9137ZM53.221 14.1599C54.8907 12.8346 54.582 10.2154 52.6499 9.3146L42.4522 4.56038C41.4677 4.10141 40.3085 4.23805 39.4577 4.91334L13.3596 25.6278C12.5089 26.3031 12.1126 27.4011 12.3361 28.4641L15.6061 44.0155L53.221 14.1599Z" fill="black"/>
<path d="M14.6735 60.2726C14.2195 60.6333 13.593 60.685 13.086 60.4038L4.59867 54.729C3.75968 54.2635 3.60569 53.1213 4.29147 52.4503L13.5878 43.684C14.4378 42.8523 14.5318 44.4948 14.6735 45.6755L17.723 56.9789C17.7823 57.4732 17.581 57.9629 17.1913 58.2725L14.6735 60.2726Z" fill="#060606"/>
<path fill-rule="evenodd" clip-rule="evenodd" d="M4.03184 53.9437L14.2295 58.6979L40.3275 37.9834L38.0123 26.9728L4.03184 53.9437ZM2.24902 51.6975C0.579257 53.0229 0.887966 55.642 2.82011 56.5428L13.0177 61.297C14.0022 61.756 15.1615 61.6194 16.0123 60.9441L42.1103 40.2296C42.9611 39.5543 43.3574 38.4563 43.1338 37.3934L39.8639 21.842L2.24902 51.6975Z" fill="black"/>
</svg>
