<svg width="32" height="26" viewBox="0 0 32 26" fill="none" xmlns="http://www.w3.org/2000/svg">
<path fill-rule="evenodd" clip-rule="evenodd" d="M0.5 8.2749V19.2999C0.5 22.7793 3.32061 25.5999 6.8 25.5999H25.7C29.1794 25.5999 32 22.7793 32 19.2999V8.2749C31.4929 8.70338 30.9832 9.10178 30.4687 9.50403C30.2283 9.69192 29.9869 9.88065 29.7441 10.0737C29.4716 10.2904 29.1719 10.5264 28.85 10.7766V19.2999C28.85 21.0396 27.4397 22.4499 25.7 22.4499H6.8C5.0603 22.4499 3.65 21.0396 3.65 19.2999V10.7766C3.32806 10.5264 3.02843 10.2904 2.75587 10.0737C2.51312 9.88065 2.27169 9.69192 2.03133 9.50402C1.51677 9.10178 1.00712 8.70337 0.5 8.2749Z" fill="white" fill-opacity="0.4"/>
<path fill-rule="evenodd" clip-rule="evenodd" d="M0.5 6.6999C0.5 3.22051 3.32061 0.399902 6.8 0.399902H25.7C29.1794 0.399902 32 3.22051 32 6.6999V8.2749C31.256 8.90352 30.5066 9.46742 29.7441 10.0737C28.7084 10.8973 27.2818 11.9986 25.7256 13.1031C24.1753 14.2033 22.4664 15.328 20.8707 16.1842C19.3563 16.9968 17.6672 17.7249 16.25 17.7249C14.8328 17.7249 13.1437 16.9968 11.6293 16.1842C10.0336 15.328 8.32472 14.2033 6.77441 13.1031C5.21817 11.9986 3.79158 10.8973 2.75587 10.0737C1.99344 9.46742 1.24401 8.90352 0.5 8.2749V6.6999ZM3.65 6.74751C3.92209 6.97061 4.28436 7.26461 4.7164 7.60816C5.72326 8.4088 7.10214 9.47303 8.59746 10.5342C10.0987 11.5996 11.6874 12.6406 13.1187 13.4086C14.6313 14.2202 15.6985 14.5749 16.25 14.5749C16.8015 14.5749 17.8687 14.2202 19.3813 13.4086C20.8126 12.6406 22.4013 11.5996 23.9025 10.5342C25.3979 9.47303 26.7767 8.4088 27.7836 7.60816C28.2156 7.26461 28.5779 6.97061 28.85 6.74751V6.6999C28.85 4.96021 27.4397 3.5499 25.7 3.5499H6.8C5.0603 3.5499 3.65 4.96021 3.65 6.6999V6.74751Z" fill="white"/>
</svg>
