<?xml version="1.0" encoding="utf-8"?>
<!-- Generator: Adobe Illustrator 16.0.0, SVG Export Plug-In . SVG Version: 6.00 Build 0)  -->
<!DOCTYPE svg PUBLIC "-//W3C//DTD SVG 1.1//EN" "http://www.w3.org/Graphics/SVG/1.1/DTD/svg11.dtd">
<svg version="1.1" id="Layer_1" xmlns="http://www.w3.org/2000/svg" xmlns:xlink="http://www.w3.org/1999/xlink" x="0px" y="0px"
	 width="48px" height="48px" viewBox="0 0 48 48" enable-background="new 0 0 48 48" xml:space="preserve">
<g>
	<g>
		<path fill-rule="evenodd" clip-rule="evenodd" fill="#2D2D34" d="M23.832,46.251c12.454,0,22.622-10.151,22.622-22.622
			c0-12.454-10.168-22.622-22.622-22.622c-12.47,0-22.639,10.168-22.639,22.622C1.193,36.1,11.362,46.251,23.832,46.251
			L23.832,46.251z"/>
		<path fill="#2D2D34" d="M23.832,47.667c-13.263,0-24.055-10.783-24.055-24.038S10.569-0.409,23.832-0.409
			c6.401,0,12.432,2.506,16.982,7.056c4.55,4.55,7.056,10.581,7.056,16.982C47.87,36.884,37.087,47.667,23.832,47.667z
			 M23.832,2.423c-11.702,0-21.223,9.513-21.223,21.206c0,11.694,9.521,21.207,21.223,21.207c11.692,0,21.206-9.513,21.206-21.207
			C45.038,11.936,35.524,2.423,23.832,2.423z"/>
	</g>
	<path fill-rule="evenodd" clip-rule="evenodd" fill="#FFFFFF" d="M17.674,12.629h1.635c1.443,0,2.633,1.174,2.633,2.634v13.946
		c0,1.444-1.189,2.634-2.633,2.634h-1.635c-1.443,0-2.635-1.189-2.635-2.634V15.263C15.039,13.803,16.23,12.629,17.674,12.629
		L17.674,12.629z"/>
	<path fill-rule="evenodd" clip-rule="evenodd" fill="#FFFFFF" d="M28.673,12.628h1.634c1.443,0,2.635,1.175,2.635,2.635v13.945
		c0,1.445-1.191,2.635-2.635,2.635h-1.634c-1.444,0-2.634-1.189-2.634-2.635V15.263C26.039,13.803,27.229,12.628,28.673,12.628
		L28.673,12.628z"/>
</g>
</svg>
