<svg width="92" height="19" viewBox="0 0 92 19" fill="none" xmlns="http://www.w3.org/2000/svg">
<path d="M45.053 2.78511C45.3604 1.88092 46.6392 1.88092 46.9466 2.78511L47.9032 5.59898C48.0394 5.99973 48.4132 6.2713 48.8364 6.27703L51.8082 6.31724C52.7631 6.33016 53.1582 7.5464 52.3933 8.11814L50.0127 9.89742C49.6737 10.1508 49.5309 10.5902 49.6563 10.9945L50.5363 13.8332C50.8191 14.7454 49.7846 15.4971 49.0044 14.9463L46.5766 13.232C46.2308 12.9879 45.7688 12.9879 45.423 13.232L42.9952 14.9463C42.2151 15.4971 41.1805 14.7454 41.4633 13.8332L42.3433 10.9945C42.4687 10.5902 42.3259 10.1508 41.9869 9.89742L39.6063 8.11814C38.8414 7.5464 39.2365 6.33016 40.1915 6.31724L43.1632 6.27703C43.5864 6.2713 43.9602 5.99973 44.0965 5.59898L45.053 2.78511Z" fill="#2D2D34"/>
<path d="M63.4534 2.78511C63.7608 1.88092 65.0396 1.88092 65.347 2.78511L66.3035 5.59898C66.4398 5.99973 66.8136 6.2713 67.2368 6.27703L70.2085 6.31724C71.1635 6.33016 71.5586 7.5464 70.7937 8.11814L68.4131 9.89742C68.0741 10.1508 67.9313 10.5902 68.0567 10.9945L68.9367 13.8332C69.2195 14.7454 68.1849 15.4971 67.4048 14.9463L64.977 13.232C64.6312 12.9879 64.1692 12.9879 63.8234 13.232L61.3956 14.9463C60.6154 15.4971 59.5809 14.7454 59.8637 13.8332L60.7437 10.9945C60.8691 10.5902 60.7263 10.1508 60.3873 9.89742L58.0067 8.11814C57.2417 7.5464 57.6369 6.33016 58.5918 6.31724L61.5636 6.27703C61.9868 6.2713 62.3606 5.99973 62.4968 5.59898L63.4534 2.78511Z" fill="#2D2D34"/>
<path d="M8.25321 2.78511C8.56059 1.88092 9.83941 1.88092 10.1468 2.78511L11.1034 5.59898C11.2396 5.99973 11.6134 6.2713 12.0366 6.27703L15.0083 6.31724C15.9633 6.33016 16.3584 7.5464 15.5935 8.11814L13.2129 9.89742C12.8739 10.1508 12.7311 10.5902 12.8565 10.9945L13.7365 13.8332C14.0193 14.7454 12.9847 15.4971 12.2046 14.9463L9.77678 13.232C9.43101 12.9879 8.96899 12.9879 8.62321 13.232L6.19539 14.9463C5.41525 15.4971 4.38066 14.7454 4.66346 13.8332L5.54353 10.9945C5.66887 10.5902 5.52609 10.1508 5.18706 9.89742L2.80651 8.11814C2.04155 7.5464 2.43673 6.33016 3.39165 6.31724L6.36339 6.27703C6.78663 6.2713 7.16042 5.99973 7.29665 5.59898L8.25321 2.78511Z" fill="#2D2D34"/>
<path d="M81.8533 2.78511C82.1607 1.88092 83.4395 1.88092 83.7469 2.78511L84.7034 5.59898C84.8397 5.99973 85.2135 6.2713 85.6367 6.27703L88.6084 6.31724C89.5634 6.33016 89.9585 7.5464 89.1936 8.11814L86.813 9.89742C86.474 10.1508 86.3312 10.5902 86.4566 10.9945L87.3366 13.8332C87.6194 14.7454 86.5848 15.4971 85.8047 14.9463L83.3769 13.232C83.0311 12.9879 82.5691 12.9879 82.2233 13.232L79.7955 14.9463C79.0153 15.4971 77.9808 14.7454 78.2636 13.8332L79.1436 10.9945C79.269 10.5902 79.1262 10.1508 78.7872 9.89742L76.4066 8.11814C75.6417 7.5464 76.0368 6.33016 76.9918 6.31724L79.9635 6.27703C80.3867 6.2713 80.7605 5.99973 80.8967 5.59898L81.8533 2.78511Z" fill="#2D2D34"/>
<path d="M26.6531 2.78511C26.9605 1.88092 28.2393 1.88092 28.5467 2.78511L29.5033 5.59898C29.6395 5.99973 30.0133 6.2713 30.4365 6.27703L33.4082 6.31724C34.3632 6.33016 34.7583 7.5464 33.9934 8.11814L31.6128 9.89742C31.2738 10.1508 31.131 10.5902 31.2564 10.9945L32.1364 13.8332C32.4192 14.7454 31.3847 15.4971 30.6045 14.9463L28.1767 13.232C27.8309 12.9879 27.3689 12.9879 27.0231 13.232L24.5953 14.9463C23.8152 15.4971 22.7806 14.7454 23.0634 13.8332L23.9434 10.9945C24.0688 10.5902 23.926 10.1508 23.587 9.89742L21.2064 8.11814C20.4415 7.5464 20.8366 6.33016 21.7916 6.31724L24.7633 6.27703C25.1865 6.2713 25.5603 5.99973 25.6966 5.59898L26.6531 2.78511Z" fill="#2D2D34"/>
</svg>
