<svg width="23" height="23" viewBox="0 0 23 23" fill="none" xmlns="http://www.w3.org/2000/svg">
<path d="M0.93934 20.0587C0.353553 20.6445 0.353553 21.5943 0.93934 22.18C1.52513 22.7658 2.47487 22.7658 3.06066 22.18L0.93934 20.0587ZM22.5 2.11938C22.5 1.29096 21.8284 0.619384 21 0.619384L7.5 0.619383C6.67157 0.619383 6 1.29096 6 2.11938C6 2.94781 6.67157 3.61938 7.5 3.61938H19.5V15.6194C19.5 16.4478 20.1716 17.1194 21 17.1194C21.8284 17.1194 22.5 16.4478 22.5 15.6194L22.5 2.11938ZM3.06066 22.18L22.0607 3.18004L19.9393 1.05872L0.93934 20.0587L3.06066 22.18Z" fill="#BC3432"/>
</svg>
