<svg width="30" height="30" viewBox="0 0 30 30" fill="none" xmlns="http://www.w3.org/2000/svg">
<g clip-path="url(#clip0_3_52)">
<path d="M24.5075 8.74375C24.4125 8.37125 24.1425 8.09 23.8337 8.00375C23.2875 7.85 20.625 7.5 15 7.5C9.375 7.5 6.715 7.85 6.16375 8.00375C5.85875 8.08875 5.58875 8.37 5.4925 8.74375C5.35625 9.27375 5 11.495 5 15C5 18.505 5.35625 20.725 5.4925 21.2575C5.5875 21.6287 5.8575 21.91 6.165 21.995C6.715 22.15 9.375 22.5 15 22.5C20.625 22.5 23.2863 22.15 23.8363 21.9963C24.1413 21.9113 24.4113 21.63 24.5075 21.2562C24.6438 20.7262 25 18.5 25 15C25 11.5 24.6438 9.275 24.5075 8.74375ZM26.9287 8.1225C27.5 10.35 27.5 15 27.5 15C27.5 15 27.5 19.65 26.9287 21.8775C26.6112 23.1088 25.6825 24.0775 24.5062 24.405C22.37 25 15 25 15 25C15 25 7.63375 25 5.49375 24.405C4.3125 24.0725 3.385 23.105 3.07125 21.8775C2.5 19.65 2.5 15 2.5 15C2.5 15 2.5 10.35 3.07125 8.1225C3.38875 6.89125 4.3175 5.9225 5.49375 5.595C7.63375 5 15 5 15 5C15 5 22.37 5 24.5062 5.595C25.6875 5.9275 26.615 6.895 26.9287 8.1225ZM12.5 19.375V10.625L20 15L12.5 19.375Z" fill="#F8F6F2"/>
</g>
<defs>
<clipPath id="clip0_3_52">
<rect width="30" height="30" fill="white"/>
</clipPath>
</defs>
</svg>
